<svg id="f81a16ed-6aa3-462d-93fe-93653fb269b6" data-name="Layer 1" xmlns="http://www.w3.org/2000/svg" viewBox="0 0 150 73.31"><title>logo</title><path d="M0,25.4V56.17c0,.24.07.32.32.32H6.73c.48,0,.33-.67.32-1.18l.07-22.39,0,.07,7.3,22.19c.6,1.69-.5,1.31,5.42,1.31.48,0,.94-2,1.22-2.73l3.07-9c.15-.46.29-.94.49-1.43.68-1.73,2.1-6.2,2.84-8.27a15,15,0,0,1,.82-2.28V55.21c0,.52-.17,1.28.32,1.28h6.63V25.08H25.11c-.42,0-.95,1.94-1.08,2.34-.07.19-.13.44-.2.65s-.15.39-.23.63C22,33.42,19.9,39.14,18.19,44a12.74,12.74,0,0,0-.45,1.36,13.11,13.11,0,0,1-1-2.46c-.07-.19-.14-.45-.21-.64-1.8-4.86-3.39-9.93-5.21-14.77-.25-.69-.64-2.43-1.09-2.43H.32c-.25,0-.32.07-.32.32Z" fill="#fff" fill-rule="evenodd"/><path d="M93.38,41a18.17,18.17,0,0,0,1.13,7,13.57,13.57,0,0,0,2.9,4.68,12,12,0,0,0,4.44,3.14,14.09,14.09,0,0,0,6.28,1.12c.6,0,1.19,0,1.76-.06,5.77-.82,9.63-3.5,11.87-9.06a15.57,15.57,0,0,0,.83-2.92c.11-.6.14-1.06.23-1.69A17.84,17.84,0,0,0,120,30.89c-.29-.4-.54-.65-.81-1a11.82,11.82,0,0,0-1.8-1.73,12.26,12.26,0,0,0-2.15-1.37,16.51,16.51,0,0,0-11.41-.94,13.24,13.24,0,0,0-2.59,1,14.25,14.25,0,0,0-6.8,7.83A18.44,18.44,0,0,0,93.38,41Zm22.14-.8s.72,10.82-7,11.14c0,0-7.25.84-7.65-9.77,0-7.82,3.8-10.82,7.53-10.72,4.32.12,7.05,3.77,7.17,9.35Z" fill="#fff" fill-rule="evenodd"/><path d="M123.61,56.49h8l.57-1.35c.22-.48.4-.84.61-1.32l2.49-5.42c.21-.51.37-.83.58-1.34s.37-1.07.56-1.47a3.57,3.57,0,0,1,.75,1.29c.22.5.4.91.64,1.38L142,56.49h8a16.57,16.57,0,0,0-1.56-2.93L143.9,45.7c-.18-.31-.37-.67-.59-1-.81-1.21-1.51-2.74-2.29-3.91l7.55-13.07a8.44,8.44,0,0,0,1-2h-7.9c-.41.6-3.12,6.59-3.62,7.81-.2.48-.37.92-.55,1.38A10.71,10.71,0,0,0,137,36.3l-5-10.58h-8a2.27,2.27,0,0,0,.45,1.05c1.19,1.81,3.69,6.77,4.87,8.59.4.6.69,1.29,1.07,1.92l1.62,2.86c.48.87.63.55.07,1.45l-5.71,10c-.23.37-.35.54-.55.93a32.93,32.93,0,0,0-2.14,4Z" fill="#fff" fill-rule="evenodd"/><path d="M69.44,34c0,2.43.2,3.87,1.9,5.79A11.77,11.77,0,0,0,74,41.9L76.18,43c1.94.87,6.73,2,6.73,4.59a2.67,2.67,0,0,1-1.33,2.74,4.82,4.82,0,0,1-1.2.51c-2.78.74-6.62-.06-9.16-1.29a3.06,3.06,0,0,0-.81-.35L69,55.1c1.5,1,5.59,1.82,7.58,1.82,3.8,0,6.9-.05,10.14-2.47a8.77,8.77,0,0,0,1.83-12.06,10.17,10.17,0,0,0-3.51-2.91c-2.18-1.32-7.44-2.43-8.31-4.5-1-2.4,1.45-3.92,4.13-3.92a15.77,15.77,0,0,1,3.52.43c.55.13,1,.27,1.48.44a9,9,0,0,0,1.51.52,8.11,8.11,0,0,0,.39-1.33c.13-.53.25-.89.4-1.41A22.49,22.49,0,0,1,89,26.9a17,17,0,0,0-6.41-1.61c-4.4,0-6.32.06-9.85,2.44a7.22,7.22,0,0,0-1.23,1.11l-1,1.37A7.93,7.93,0,0,0,69.44,34Z" fill="#fff" fill-rule="evenodd"/><path d="M37.82,25.61V55.85c0,.53,1.3.32,2.35.32l-.12-.09c-1.82-1.24-1.93-2.74.31-3.88a19.38,19.38,0,0,0,2.4-1.14l1-.79a42.72,42.72,0,0,0,2.76-3.44c1.49-2,3.25-4.37,3.25-7.11a16.35,16.35,0,0,0-1.41-6.19c-.72-1.75-1.57-3.6-2.44-5.25.25-.11.5-.19.75-.31l4.92-2.24c.33-.2.19,0,.31-.33-.88,0-1.34-.11-2.24-.11H38.14c-.24,0-.32.08-.32.32Z" fill="#fff" fill-rule="evenodd"/><path d="M63.46,42.92a3.55,3.55,0,0,1-1.94,3.41L59.4,47.62c-.4.22-.67.43-1.07.64a23.74,23.74,0,0,0-4.89,3.66c-1,1-2.32,2.58-3.36,3.47a4.29,4.29,0,0,0-.94.78h2a24.07,24.07,0,0,0,7-1.54A18.4,18.4,0,0,0,61,53.2c.43-.29.89-.55,1.28-.86l3.15-3.27A14.25,14.25,0,0,0,68,40.89c0-5.48-2.18-10.11-6.84-12.82-.86-.49-3.61-1.79-4.81-1.81l1.46,4.42a18.08,18.08,0,0,0,1,2.72c1.2,2.31,1,2.66,2.81,5.42.43.65.76,1.15,1.17,1.82a4,4,0,0,1,.71,2.28Z" fill="#fff" fill-rule="evenodd"/><polygon points="0.69 21.34 149.31 21.34 149.31 20.7 0.69 20.7 0.69 21.34" fill="#fff" fill-rule="evenodd"/><polygon points="0.69 61.3 149.31 61.3 149.31 60.66 0.69 60.66 0.69 61.3" fill="#fff" fill-rule="evenodd"/><path d="M48.08,13.34A6.79,6.79,0,0,1,43,15.42c-3.67,0-6.36-2.65-6.36-6.66S39.29,2.1,43,2.1a6.79,6.79,0,0,1,5,2.08l1-1.93A8.48,8.48,0,0,0,42.88,0a8.46,8.46,0,0,0-8.74,8.81,8.41,8.41,0,0,0,8.74,8.81,8,8,0,0,0,6.23-2.52l-1-1.76ZM55,1.71a1.55,1.55,0,1,0-1.54,1.46A1.46,1.46,0,0,0,55,1.71Zm-.35,3.86H52.3V17.32h2.38V5.57Zm10.81,0a3.46,3.46,0,0,0-1.24-.19,3.06,3.06,0,0,0-2.89,2h-.08l0-1.81H58.93V17.32h2.38V11.46a5.26,5.26,0,0,1,.71-3A2.47,2.47,0,0,1,64,7.5a3.07,3.07,0,0,1,1.29.25h.1l.15-2.21ZM73.55,10l4.6-4.43H75.38l-4.8,4.7V.25H68.23V17.32h2.35v-4.4l1.36-1.29,4,5.69h2.77L73.55,10ZM91.61.25h-12v2h4.82V17.32h2.4V2.25h4.8v-2ZM102,11a5.36,5.36,0,0,0-5.57-5.61,5.82,5.82,0,0,0-6,6.08c0,3.74,2.4,6.17,5.89,6.17a6.92,6.92,0,0,0,5.17-1.86l-1-1.36a6.52,6.52,0,0,1-3.89,1.36A3.62,3.62,0,0,1,92.85,12h9.05a9.42,9.42,0,0,0,.08-1Zm-9.11-.54a3.47,3.47,0,0,1,3.47-3.37,3.41,3.41,0,0,1,3.39,3.37ZM110.66,10l4.6-4.43h-2.77l-4.8,4.7V.25h-2.35V17.32h2.35v-4.4l1.36-1.29,4,5.69h2.77L110.66,10Z" fill="#fff"/><path d="M5,65.6H.8v7.58H1.87V69.91h3V69H1.87V66.49H5V65.6Zm10,3.8a3.76,3.76,0,0,0-3.91-3.91,3.91,3.91,0,1,0,0,7.82A3.76,3.76,0,0,0,15,69.4Zm-1.08,0a2.83,2.83,0,1,1-2.82-3,2.78,2.78,0,0,1,2.82,3Zm6.83.43a2,2,0,0,0,1.73-2.08,2,2,0,0,0-.74-1.6,2.9,2.9,0,0,0-1.82-.53H17.76v7.58h1.06V69.92h.81l2,3.26H22.9l-2.17-3.37Zm.63-2a1.15,1.15,0,0,1-.48,1A2.14,2.14,0,0,1,19.6,69h-.78V66.47h.78a2,2,0,0,1,1.28.28,1.12,1.12,0,0,1,.48,1ZM33,72.28H29.54V69.64h3.18v-.89H29.54V66.49h3.37V65.6H28.47v7.58H33v-.9Zm7.41-6.68-2.13,6-2.13-6H35l2.79,7.58h.94l2.79-7.58Zm8,6.68H45V69.64h3.19v-.89H45V66.49h3.38V65.6H43.91v7.58h4.52v-.9Zm5.82-2.47A2,2,0,0,0,56,67.73a2,2,0,0,0-.73-1.6,3,3,0,0,0-1.83-.53H51.27v7.58h1.07V69.92h.81l2,3.26h1.28l-2.16-3.37Zm.62-2a1.15,1.15,0,0,1-.48,1,2.11,2.11,0,0,1-1.27.26h-.78V66.47h.78a2,2,0,0,1,1.27.28,1.12,1.12,0,0,1,.48,1Zm7.94-2.16-2,3.48-2-3.48H57.67L60.3,70v3.17h1.07V70L64,65.6Zm15,0-1.64,6-1.75-6H73.33l-1.74,6L70,65.6H68.83L71,73.18h1l1.81-6.12,1.83,6.12h1l2.19-7.58Zm6.23,0h-.93L80,73.18h1.12l.78-2h3.25l.78,2h1.18L84,65.58Zm-1.82,4.73,1.33-3.4,1.33,3.4Zm11,2H90.58V65.6H89.52v7.58h3.73v-.91Zm5-3.68,2.88-3H99.88l-3.09,3.23V65.6H95.73v7.58h1.06v-3l.78-.79,2.52,3.8h1.29l-3.09-4.59Zm16,.81a3.91,3.91,0,1,0-3.91,3.91,3.76,3.76,0,0,0,3.91-3.91Zm-1.08,0a2.83,2.83,0,1,1-2.83-3,2.78,2.78,0,0,1,2.83,3Zm8.06-3.78H117v7.58h1.07V69.91h3V69h-3V66.49h3.14V65.6ZM131,72.27h-2.67V65.6h-1.07v7.58H131v-.91Zm3.54-6.67h-1.07v7.58h1.07V65.6Zm7.4,0h-4.2v7.58h1.06V69.91h3V69h-3V66.49h3.14V65.6Zm7.28,6.68h-3.46V69.64h3.18v-.89h-3.18V66.49h3.37V65.6h-4.44v7.58h4.52v-.9Z" fill="#fff"/></svg>