<?xml version="1.0" encoding="utf-8"?>
<!-- Generator: Adobe Illustrator 16.0.0, SVG Export Plug-In . SVG Version: 6.00 Build 0)  -->
<!DOCTYPE svg PUBLIC "-//W3C//DTD SVG 1.0//EN" "http://www.w3.org/TR/2001/REC-SVG-20010904/DTD/svg10.dtd" [
	<!ENTITY ns_flows "http://ns.adobe.com/Flows/1.0/">
	<!ENTITY ns_extend "http://ns.adobe.com/Extensibility/1.0/">
	<!ENTITY ns_ai "http://ns.adobe.com/AdobeIllustrator/10.0/">
	<!ENTITY ns_graphs "http://ns.adobe.com/Graphs/1.0/">
]>
<svg version="1.0" id="Layer_1" xmlns:x="&ns_extend;" xmlns:i="&ns_ai;" xmlns:graph="&ns_graphs;"
	 xmlns="http://www.w3.org/2000/svg" xmlns:xlink="http://www.w3.org/1999/xlink" xmlns:a="http://ns.adobe.com/AdobeSVGViewerExtensions/3.0/"
	 x="0px" y="0px" width="150px" height="73.313px" viewBox="0 0 150 73.313" enable-background="new 0 0 150 73.313"
	 xml:space="preserve">
<g>
	<path fill-rule="evenodd" clip-rule="evenodd" fill="#FFFFFF" d="M0,25.4v30.77c0,0.245,0.074,0.32,0.321,0.32h6.41
		c0.478,0,0.326-0.665,0.321-1.175l0.066-22.397c0.007,0.017,0.024,0.054,0.033,0.075l7.301,22.186
		c0.599,1.695-0.506,1.312,5.419,1.312c0.474,0,0.937-1.977,1.221-2.731l3.066-9.008c0.153-0.46,0.294-0.943,0.489-1.434
		c0.686-1.73,2.105-6.193,2.838-8.272c0.173-0.491,0.543-1.868,0.825-2.273l0,22.436c-0.003,0.524-0.166,1.282,0.321,1.282h6.624
		V25.08H25.107c-0.416,0-0.951,1.944-1.081,2.338c-0.065,0.196-0.125,0.447-0.201,0.654c-0.076,0.205-0.146,0.386-0.227,0.627
		c-1.572,4.72-3.694,10.44-5.406,15.321c-0.165,0.47-0.343,0.871-0.457,1.359c-0.316-0.364-0.802-2.023-0.961-2.458
		c-0.071-0.194-0.143-0.448-0.214-0.641c-1.797-4.863-3.385-9.928-5.205-14.774c-0.259-0.69-0.64-2.427-1.099-2.427H0.321
		C0.074,25.08,0,25.154,0,25.4L0,25.4z"/>
	<path fill-rule="evenodd" clip-rule="evenodd" fill="#FFFFFF" d="M93.376,40.998c0,2.989,0.288,4.552,1.134,6.987
		c0.546,1.572,1.703,3.496,2.899,4.686c1.579,1.569,2.271,2.171,4.443,3.142c1.706,0.762,4.063,1.251,6.282,1.121
		c0.592-0.035,1.188,0.021,1.758-0.061c5.771-0.825,9.626-3.499,11.872-9.067c0.357-0.886,0.626-1.863,0.823-2.916
		c0.112-0.601,0.141-1.061,0.229-1.694c0.569-4.094-0.363-8.961-2.775-12.302c-0.292-0.403-0.539-0.654-0.81-1.006
		c-0.478-0.62-1.179-1.217-1.801-1.725c-0.613-0.501-1.425-1.01-2.151-1.374c-3.428-1.717-7.734-1.942-11.412-0.939
		c-0.965,0.263-1.749,0.631-2.585,1.047c-3.038,1.511-5.703,4.587-6.8,7.837C93.836,36.652,93.376,38.471,93.376,40.998
		L93.376,40.998z M115.521,40.203c0,0,0.721,10.818-7.053,11.139c0,0-7.252,0.842-7.653-9.776c0.034-7.816,3.8-10.818,7.533-10.715
		C112.665,30.969,115.401,34.62,115.521,40.203L115.521,40.203z"/>
	<path fill-rule="evenodd" clip-rule="evenodd" fill="#FFFFFF" d="M123.611,56.49h8.013l0.569-1.354
		c0.222-0.479,0.395-0.838,0.607-1.316l2.486-5.42c0.219-0.508,0.378-0.831,0.58-1.342c0.184-0.465,0.371-1.064,0.564-1.467
		c0.317,0.232,0.576,0.901,0.746,1.284c0.226,0.506,0.404,0.911,0.643,1.388l4.167,8.227H150c-0.038-0.453-1.202-2.348-1.557-2.932
		l-4.539-7.854c-0.183-0.318-0.369-0.677-0.592-1.011c-0.807-1.215-1.509-2.747-2.287-3.909l7.541-13.079
		c0.26-0.439,0.972-1.57,1.006-1.985h-7.906c-0.404,0.604-3.116,6.59-3.618,7.813c-0.195,0.477-0.363,0.913-0.548,1.375
		c-0.156,0.391-0.441,0.989-0.534,1.389l-5.021-10.577h-8.013c0.035,0.421,0.252,0.751,0.447,1.048
		c1.191,1.813,3.688,6.769,4.875,8.587c0.394,0.604,0.687,1.296,1.067,1.923l1.623,2.864c0.477,0.868,0.624,0.55,0.062,1.45
		l-5.702,10.004c-0.233,0.37-0.353,0.546-0.556,0.939C125.369,53.272,123.657,55.933,123.611,56.49L123.611,56.49z"/>
	<path fill-rule="evenodd" clip-rule="evenodd" fill="#FFFFFF" d="M69.444,33.947c0,2.431,0.201,3.876,1.897,5.795
		c0.736,0.833,1.689,1.58,2.65,2.157l2.184,1.129c1.944,0.874,6.73,1.963,6.73,4.594c0,1.153-0.127,2.018-1.324,2.735
		c-0.371,0.224-0.737,0.385-1.201,0.51c-2.783,0.745-6.625-0.053-9.157-1.285c-0.326-0.158-0.463-0.274-0.818-0.357l-1.389,5.877
		c1.504,1.007,5.595,1.815,7.585,1.815c3.798,0,6.894-0.052,10.136-2.471c3.732-2.786,4.584-8.137,1.831-12.06
		c-0.963-1.373-2.118-2.065-3.506-2.905c-2.182-1.319-7.441-2.431-8.315-4.505c-1.009-2.395,1.457-3.914,4.128-3.914
		c1.2,0,2.553,0.19,3.527,0.426c0.549,0.133,0.966,0.269,1.481,0.441c0.403,0.135,1.094,0.487,1.509,0.522
		c0.182-0.379,0.261-0.837,0.383-1.326c0.135-0.535,0.252-0.894,0.402-1.414c0.252-0.867,0.482-2.119,0.817-2.815
		c-1.222-0.818-4.904-1.603-6.411-1.603c-4.4-0.02-6.32,0.06-9.85,2.436c-0.495,0.333-0.834,0.686-1.236,1.115l-0.983,1.367
		C69.99,31.125,69.444,32.519,69.444,33.947L69.444,33.947z"/>
	<path fill-rule="evenodd" clip-rule="evenodd" fill="#FFFFFF" d="M37.821,25.614v30.235c0,0.528,1.303,0.321,2.35,0.321
		l-0.124-0.091c-1.815-1.242-1.923-2.742,0.317-3.883c0.905-0.461,1.328-0.468,2.395-1.132l1.02-0.797
		c0.645-0.596,2.134-2.606,2.758-3.438c1.497-1.992,3.25-4.369,3.25-7.113c0-2.338-0.702-4.491-1.404-6.182
		c-0.727-1.75-1.572-3.606-2.442-5.25c0.248-0.119,0.496-0.193,0.749-0.319l4.921-2.236c0.333-0.202,0.191,0.005,0.313-0.329
		c-0.884,0-1.339-0.106-2.244-0.106H38.141C37.895,25.293,37.821,25.368,37.821,25.614L37.821,25.614z"/>
	<path fill-rule="evenodd" clip-rule="evenodd" fill="#FFFFFF" d="M63.461,42.922c0,1.864-0.72,2.569-1.937,3.404l-2.123,1.296
		c-0.397,0.213-0.67,0.429-1.068,0.642c-1.457,0.781-3.736,2.44-4.888,3.658c-0.992,1.05-2.32,2.581-3.369,3.469
		c-0.334,0.282-0.707,0.443-0.931,0.779c0.675,0,1.36,0.012,2.034,0.004c1.87-0.022,5.142-0.796,7.001-1.545
		c0.821-0.331,2.146-0.959,2.845-1.429c0.428-0.288,0.886-0.555,1.276-0.861l3.145-3.266c1.63-2.25,2.501-5.275,2.501-8.182
		c0-5.479-2.179-10.11-6.841-12.817c-0.855-0.497-3.608-1.792-4.804-1.819l1.454,4.422c0.342,1.033,0.562,1.842,1.017,2.722
		c1.198,2.313,0.967,2.665,2.806,5.421c0.432,0.646,0.766,1.148,1.167,1.824C63.146,41.311,63.461,41.892,63.461,42.922
		L63.461,42.922z"/>
	<polygon fill-rule="evenodd" clip-rule="evenodd" fill="#FFFFFF" points="0.694,21.34 149.306,21.34 149.306,20.699 0.694,20.699 
		0.694,21.34 	"/>
	<polygon fill-rule="evenodd" clip-rule="evenodd" fill="#FFFFFF" points="0.694,61.298 149.306,61.298 149.306,60.656 
		0.694,60.656 0.694,61.298 	"/>
	<path fill="#FFFFFF" d="M48.075,13.339c-1.114,1.213-2.846,2.079-5.098,2.079c-3.663,0-6.36-2.648-6.36-6.657
		c0-4.009,2.673-6.658,6.36-6.658c2.375,0,4.281,1.238,4.95,2.079l1.015-1.93C48.001,1.336,46.07,0,42.878,0
		c-4.9,0-8.736,3.49-8.736,8.811s3.762,8.811,8.736,8.811c3.242,0,5.172-1.336,6.236-2.524L48.075,13.339L48.075,13.339z
		 M55.025,1.708c0-0.842-0.644-1.46-1.535-1.46c-0.916,0-1.559,0.619-1.559,1.46c0,0.841,0.644,1.46,1.559,1.46
		C54.381,3.168,55.025,2.549,55.025,1.708L55.025,1.708z M54.678,5.568h-2.375v11.755h2.375V5.568L54.678,5.568z M65.489,5.544
		c0,0-0.445-0.198-1.237-0.198c-1.262,0-2.326,0.693-2.896,2.029h-0.074l0.024-1.807h-2.375v11.755h2.375v-5.865
		c0-1.732,0.495-2.648,0.718-2.97c0.248-0.322,0.891-0.99,1.931-0.99c0.643,0,1.064,0.148,1.287,0.247h0.099L65.489,5.544
		L65.489,5.544z M73.552,9.999l4.603-4.43h-2.771l-4.801,4.703V0.248h-2.351v17.076h2.351v-4.405l1.361-1.287l4.034,5.692h2.771
		L73.552,9.999L73.552,9.999z M91.614,0.248H79.586v2.005h4.826v15.071h2.4V2.252h4.802V0.248L91.614,0.248z M101.979,10.964
		c0-3.292-2.302-5.618-5.569-5.618c-3.267,0-5.964,2.376-5.964,6.088c0,3.737,2.4,6.163,5.89,6.163c3.515,0,5.024-1.732,5.173-1.856
		l-0.99-1.361c-0.271,0.173-1.683,1.361-3.885,1.361c-2.179,0-3.663-1.411-3.787-3.737h9.058
		C101.904,12.003,101.979,11.409,101.979,10.964L101.979,10.964z M92.872,10.419c0.074-1.411,1.113-3.366,3.464-3.366
		c2.376,0,3.366,2.054,3.391,3.366H92.872L92.872,10.419z M110.661,9.999l4.604-4.43h-2.772l-4.801,4.703V0.248h-2.352v17.076h2.352
		v-4.405l1.361-1.287l4.033,5.692h2.772L110.661,9.999L110.661,9.999z"/>
	<path fill="#FFFFFF" d="M5.01,65.603H0.804v7.578h1.065v-3.272h2.955v-0.89H1.869v-2.526H5.01V65.603L5.01,65.603z M14.985,69.403
		c0-2.428-1.779-3.91-3.91-3.91s-3.91,1.482-3.91,3.91c0,2.427,1.779,3.909,3.91,3.909S14.985,71.83,14.985,69.403L14.985,69.403z
		 M13.898,69.381c0,1.845-1.274,2.966-2.822,2.966c-1.538,0-2.822-1.121-2.822-2.966c0-1.855,1.274-2.965,2.822-2.965
		S13.898,67.525,13.898,69.381L13.898,69.381z M20.732,69.81c0.802-0.154,1.724-0.747,1.724-2.076c0-0.691-0.286-1.241-0.736-1.604
		c-0.45-0.352-1.065-0.527-1.823-0.527h-2.142v7.578h1.065v-3.262h0.813l1.977,3.262h1.285L20.732,69.81L20.732,69.81z
		 M21.358,67.756c0,0.461-0.143,0.769-0.483,1.021c-0.34,0.241-0.747,0.263-1.274,0.263h-0.78v-2.569h0.78
		c0.527,0,0.934,0.021,1.274,0.274C21.215,66.987,21.358,67.306,21.358,67.756L21.358,67.756z M32.997,72.28h-3.459v-2.636h3.185
		v-0.89h-3.185v-2.263h3.371v-0.89h-4.437v7.578h4.524V72.28L32.997,72.28z M40.414,65.603l-2.13,6.031l-2.131-6.031H35.01
		l2.79,7.578h0.944l2.79-7.578H40.414L40.414,65.603z M48.434,72.28h-3.459v-2.636h3.185v-0.89h-3.185v-2.263h3.372v-0.89h-4.437
		v7.578h4.524V72.28L48.434,72.28z M54.247,69.81c0.802-0.154,1.724-0.747,1.724-2.076c0-0.691-0.286-1.241-0.736-1.604
		c-0.45-0.352-1.065-0.527-1.823-0.527h-2.142v7.578h1.065v-3.262h0.813l1.977,3.262h1.285L54.247,69.81L54.247,69.81z
		 M54.873,67.756c0,0.461-0.143,0.769-0.483,1.021c-0.34,0.241-0.747,0.263-1.274,0.263h-0.78v-2.569h0.78
		c0.527,0,0.934,0.021,1.274,0.274C54.729,66.987,54.873,67.306,54.873,67.756L54.873,67.756z M62.805,65.603l-1.977,3.482
		l-1.966-3.482h-1.197l2.636,4.404v3.174h1.065v-3.174l2.636-4.404H62.805L62.805,65.603z M77.805,65.603l-1.637,5.968l-1.746-5.968
		h-1.087l-1.746,5.968l-1.636-5.968h-1.12l2.186,7.578h1.043l1.813-6.118l1.823,6.118h1.043l2.186-7.578H77.805L77.805,65.603z
		 M84.045,65.581h-0.933l-3.087,7.6h1.121l0.779-1.977h3.251l0.779,1.977h1.187L84.045,65.581L84.045,65.581z M82.223,70.314
		l1.328-3.404l1.329,3.404H82.223L82.223,70.314z M93.252,72.27h-2.669v-6.667h-1.065v7.578h3.734V72.27L93.252,72.27z
		 M98.285,68.591l2.888-2.988h-1.296l-3.086,3.229v-3.229h-1.064v7.578h1.064v-3.009l0.78-0.791l2.515,3.8h1.296L98.285,68.591
		L98.285,68.591z M114.262,69.403c0-2.428-1.779-3.91-3.91-3.91c-2.13,0-3.909,1.482-3.909,3.91c0,2.427,1.779,3.909,3.909,3.909
		C112.482,73.313,114.262,71.83,114.262,69.403L114.262,69.403z M113.175,69.381c0,1.845-1.274,2.966-2.823,2.966
		c-1.537,0-2.822-1.121-2.822-2.966c0-1.855,1.274-2.965,2.822-2.965C111.9,66.416,113.175,67.525,113.175,69.381L113.175,69.381z
		 M121.238,65.603h-4.206v7.578h1.065v-3.272h2.954v-0.89h-2.954v-2.526h3.141V65.603L121.238,65.603z M130.978,72.27h-2.669v-6.667
		h-1.065v7.578h3.734V72.27L130.978,72.27z M134.518,65.603h-1.065v7.578h1.065V65.603L134.518,65.603z M141.923,65.603h-4.206
		v7.578h1.064v-3.272h2.954v-0.89h-2.954v-2.526h3.142V65.603L141.923,65.603z M149.195,72.28h-3.459v-2.636h3.185v-0.89h-3.185
		v-2.263h3.371v-0.89h-4.437v7.578h4.524V72.28L149.195,72.28z"/>
</g>
</svg>
